<svg fill="none" height="56" viewBox="0 0 56 56" width="56" xmlns="http://www.w3.org/2000/svg"><path clip-rule="evenodd" d="m4 13c0-1.6569 1.34315-3 3-3h7c.5523 0 1 .4477 1 1s-.4477 1-1 1h-7c-.55228 0-1 .4477-1 1v34c0 .5523.44771 1 1 1h7c.5523 0 1 .4477 1 1s-.4477 1-1 1h-7c-1.65685 0-3-1.3431-3-3z" fill="#79b8ff" fill-rule="evenodd"/><g fill="#2188ff"><path d="m23 36c-.5523 0-1 .4477-1 1s.4477 1 1 1h23c.5523 0 1-.4477 1-1s-.4477-1-1-1z"/><path d="m22 31c0-.5523.4477-1 1-1h23c.5523 0 1 .4477 1 1s-.4477 1-1 1h-23c-.5523 0-1-.4477-1-1z"/><path d="m23 24c-.5523 0-1 .4477-1 1s.4477 1 1 1h23c.5523 0 1-.4477 1-1s-.4477-1-1-1z"/><path d="m22 19c0-.5523.4477-1 1-1h13c.5523 0 1 .4477 1 1s-.4477 1-1 1h-13c-.5523 0-1-.4477-1-1z"/><path clip-rule="evenodd" d="m20 6c-1.6569 0-3 1.34315-3 3v38c0 1.6569 1.3431 3 3 3h29c1.6569 0 3-1.3431 3-3v-38c0-1.65685-1.3431-3-3-3zm-1 3c0-.55228.4477-1 1-1h29c.5523 0 1 .44772 1 1v38c0 .5523-.4477 1-1 1h-29c-.5523 0-1-.4477-1-1z" fill-rule="evenodd"/><path d="m10 36c-.55228 0-1 .4477-1 1s.44772 1 1 1h4c.5523 0 1-.4477 1-1s-.4477-1-1-1z"/><path d="m9 31c0-.5523.44772-1 1-1h4c.5523 0 1 .4477 1 1s-.4477 1-1 1h-4c-.55228 0-1-.4477-1-1z"/><path d="m10 24c-.55228 0-1 .4477-1 1s.44772 1 1 1h4c.5523 0 1-.4477 1-1s-.4477-1-1-1z"/></g></svg>