<?xml version="1.0" encoding="utf-8"?>

<svg version="1.1" id="Icons" xmlns="http://www.w3.org/2000/svg" xmlns:xlink="http://www.w3.org/1999/xlink" x="0px" y="0px"
	 viewBox="0 0 32 32" style="enable-background:new 0 0 32 32;" xml:space="preserve">
<style type="text/css">
	.st0{fill:#FFFFFF;}
	.st1{fill:#3A559F;}
	.st2{fill:#F4F4F4;}
	.st3{fill:#FF0084;}
	.st4{fill:#0063DB;}
	.st5{fill:#00ACED;}
	.st6{fill:#FFEC06;}
	.st7{fill:#FF0000;}
	.st8{fill:#25D366;}
	.st9{fill:#0088FF;}
	.st10{fill:#314358;}
	.st11{fill:#EE6996;}
	.st12{fill:#01AEF3;}
	.st13{fill:#FFFEFF;}
	.st14{fill:#F06A35;}
	.st15{fill:#00ADEF;}
	.st16{fill:#1769FF;}
	.st17{fill:#1AB7EA;}
	.st18{fill:#6001D1;}
	.st19{fill:#E41214;}
	.st20{fill:#05CE78;}
	.st21{fill:#7B519C;}
	.st22{fill:#FF4500;}
	.st23{fill:#00F076;}
	.st24{fill:#FFC900;}
	.st25{fill:#00D6FF;}
	.st26{fill:#FF3A44;}
	.st27{fill:#FF6A36;}
	.st28{fill:#0061FE;}
	.st29{fill:#F7981C;}
	.st30{fill:#EE1B22;}
	.st31{fill:#EF3561;}
	.st32{fill:none;stroke:#FFFFFF;stroke-width:2;stroke-miterlimit:10;}
	.st33{fill:#0097D3;}
	.st34{fill:#01308A;}
	.st35{fill:#019CDE;}
	.st36{fill:#FFD049;}
	.st37{fill:#16A05D;}
	.st38{fill:#4486F4;}
	.st39{fill:none;}
	.st40{fill:#34A853;}
	.st41{fill:#4285F4;}
	.st42{fill:#FBBC05;}
	.st43{fill:#EA4335;}
</style>
<g>
	<g>
		<path class="st29" d="M6,21c-2.8,0-5,2.2-5,5s2.2,5,5,5s5-2.2,5-5S8.8,21,6,21z"/>
		<path class="st29" d="M5.8,1c-1.2,0-2.5,0.1-4,0.3C1.4,1.4,1,1.8,1,2.3v5.1c0,0.3,0.1,0.6,0.4,0.8s0.5,0.3,0.8,0.2
			c1.2-0.2,2.4-0.4,3.6-0.4c10,0,18.1,8.1,18.1,18.1c0,1.2-0.1,2.4-0.4,3.6c-0.1,0.3,0,0.6,0.2,0.8c0.2,0.2,0.5,0.4,0.8,0.4h5.1
			c0.5,0,0.9-0.4,1-0.8c0.2-1.4,0.3-2.7,0.3-4C31,12.3,19.7,1,5.8,1z"/>
		<path class="st29" d="M5.9,11c-1.4,0-2.8,0.2-4.1,0.6c-0.4,0.1-0.7,0.5-0.7,1V18c0,0.3,0.2,0.7,0.5,0.8c0.3,0.2,0.7,0.2,1,0.1
			c1.1-0.5,2.2-0.8,3.4-0.8c4.4,0,8,3.6,8,8c0,1.2-0.3,2.3-0.8,3.4c-0.1,0.3-0.1,0.7,0.1,1c0.2,0.3,0.5,0.5,0.8,0.5h5.5
			c0.4,0,0.8-0.3,1-0.7c0.4-1.4,0.6-2.8,0.6-4.1C21,17.8,14.2,11,5.9,11z"/>
	</g>
</g>
</svg>
