<?xml version="1.0" standalone="no"?><!DOCTYPE svg PUBLIC "-//W3C//DTD SVG 1.1//EN" "http://www.w3.org/Graphics/SVG/1.1/DTD/svg11.dtd"><svg t="1605070767573" class="icon" viewBox="0 0 1024 1024" version="1.1" xmlns="http://www.w3.org/2000/svg" p-id="3474" data-spm-anchor-id="a313x.7781069.0.i27" width="100" height="100" xmlns:xlink="http://www.w3.org/1999/xlink"><defs><style type="text/css"></style></defs><path d="M607.285157 205.476815c-47.982828 0-86.901209 38.898939-86.901209 86.915535 0 47.996131 38.918381 86.922698 86.901209 86.929862 48.010457 0 86.929862-38.932708 86.929862-86.929862C694.215018 244.382916 655.295614 205.476815 607.285157 205.476815z" fill="#994091" p-id="3475" data-spm-anchor-id="a313x.7781069.0.i28" class=""></path><path d="M832.777841 234.56941c-24.415063-42.264593-85.291548-99.061157-165.004031-136.626727-0.319272-0.165776-0.63752-0.298805-0.957815-0.451278l-0.638543-0.277316c-80.113619-35.727713-208.489428-62.966077-356.018459 18.266016-157.174716 96.340185-186.905854 238.136655-194.179514 278.728142-0.388856 4.281513-0.596588 9.041934-0.700965 14.004969-0.027629-0.028653-0.048095-0.056282-0.076748-0.083911-0.020466 1.027399 0.028653 2.179642 0.021489 3.233648-0.007163 0.985444-0.055259 1.886977-0.049119 2.89391 0.014326 0.062422 0.056282 0.132006 0.069585 0.194428 0.069585 9.028631 0.715291 18.917862 2.26253 29.619598-0.034792-0.028653-0.069585-0.056282-0.097214-0.083911 0.090051 0.63138 0.229221 1.298576 0.326435 1.936095 0.090051 0.569982 0.194428 1.152243 0.284479 1.728364 0.624217 3.865028 1.3743 7.821129 2.248204 11.860119 0.11154 0.527003 0.173962 1.020236 0.291642 1.555425 0.013303 0.020466 0.040932 0.040932 0.055259 0.062422 1.928932 8.640798 4.38589 17.599843 7.647167 26.885324 6.982018 18.209734 16.932648 39.669488 30.882358 60.765969l0.152473 0.264013c3.462868 5.226025 7.189749 10.410094 11.153014 15.517415l-0.007163 0.041956c0.207731 0.271176 0.429789 0.535189 0.644683 0.805342 0.090051 0.11768 0.173962 0.242524 0.270153 0.361227l0-0.014326c24.644283 31.388894 59.017138 59.44795 106.389052 71.016427 0.007163 0.013303 0.013303 0.020466 0.013303 0.033769 0.230244 0.056282 0.472767 0.097214 0.694825 0.153496 0.180102 0.041956 0.346901 0.097214 0.527003 0.13917 0-0.007163 0-0.014326-0.007163-0.027629 21.60404 5.121648 45.859467 6.835685 73.126484 3.872191 21.916149-3.651157 40.626279-8.549723 57.385988-14.046924 0.007163 0.014326 0.013303 0.027629 0.020466 0.041956 0.666172-0.215918 1.290389-0.444115 1.942235-0.666172 0.444115-0.145309 0.923022-0.284479 1.360997-0.429789-0.007163-0.007163-0.014326-0.021489-0.014326-0.027629 23.762193-8.037047 43.485397-17.293875 62.292742-26.052353 11.186783-5.233188 24.428366-13.983479 40.736796-22.638603 0.021489-0.013303 0.041956-0.020466 0.062422-0.034792 1.985214-1.047866 4.031826-2.095731 6.107091-3.136433 27.191292-13.643742 62.521962-25.885554 110.115933-22.207791 6.169513 0.478907 12.512988 1.173732 19.113313 2.220574 37.572734 4.816702 69.634963 21.881356 88.941682 41.687448 11.235902 11.534707 18.154475 23.984251 19.279089 35.498492 8.036024 96.556103-74.547857 84.826967-104.931864 63.46545-113.495914-85.055165-206.248388-40.667212-207.421096-40.099277-0.021489 0.007163-0.034792 0.007163-0.055259 0.014326l0.020466 0c0 0.007163-0.020466 0.013303-0.020466 0.013303 0.020466 0 0.040932 0 0.061398 0 0.666172 0.097214 32.979112 5.316076 36.470633 43.735084 3.510964 38.808888-1.277086 98.387821 46.858214 100.19805 0 0-30.299073 37.913495-21.499663 59.572794 8.855692 21.666462 28.718065 59.308781-45.289486 100.961436 0 0 1.797949-0.333598 4.789073-1.047866 105.078197 6.703679 121.865535-18.396999 174.553525-81.856309 52.937676-63.791885 148.042731-149.375076 148.042731-149.375076C978.765773 500.68735 888.491747 306.800501 832.777841 234.56941zM607.285157 410.732595c-65.332984-0.00614-118.325919-52.986795-118.325919-118.340245 0-65.373916 52.992935-118.346385 118.325919-118.346385 65.388243-0.007163 118.353548 52.985772 118.353548 118.346385C725.638705 357.739661 672.674423 410.732595 607.285157 410.732595z" fill="#994091" p-id="3476"></path></svg>