<svg width="32" height="32" viewBox="0 0 32 32" fill="none" xmlns="http://www.w3.org/2000/svg">
    <path d="M16 32C24.8366 32 32 24.8366 32 16C32 7.16344 24.8366 0 16 0C7.16344 0 0 7.16344 0 16C0 24.8366 7.16344 32 16 32Z" fill="white"></path>
    <path d="M10.2965 16.7999H12.9405V27.6799C12.9405 27.786 12.9826 27.8877 13.0576 27.9628C13.1327 28.0378 13.2344 28.0799 13.3405 28.0799H17.8205C17.9266 28.0799 18.0283 28.0378 18.1033 27.9628C18.1783 27.8877 18.2205 27.786 18.2205 27.6799V16.8359H21.2605C21.3575 16.8369 21.4516 16.8025 21.5252 16.7392C21.5988 16.6759 21.6469 16.588 21.6605 16.4919L22.1205 12.4919C22.1255 12.4364 22.1189 12.3805 22.101 12.3278C22.0832 12.275 22.0545 12.2265 22.0169 12.1855C21.9792 12.1445 21.9334 12.1117 21.8824 12.0894C21.8313 12.0671 21.7762 12.0557 21.7205 12.0559H18.2005V9.53992C18.2005 8.78392 18.6005 8.39992 19.4005 8.39992H21.6925C21.7986 8.39992 21.9003 8.35778 21.9753 8.28276C22.0503 8.20775 22.0925 8.10601 22.0925 7.99992V4.31992C22.0925 4.21384 22.0503 4.11209 21.9753 4.03708C21.9003 3.96206 21.7986 3.91992 21.6925 3.91992H18.4005C16.9464 3.92501 15.5431 4.45481 14.4485 5.41192C13.9315 5.8638 13.5348 6.43694 13.294 7.07992C13.0531 7.7229 12.9756 8.41561 13.0685 9.09592V12.0319H10.2965C10.1904 12.0319 10.0887 12.0741 10.0136 12.1491C9.93863 12.2241 9.89648 12.3258 9.89648 12.4319V16.3999C9.89648 16.506 9.93863 16.6077 10.0136 16.6828C10.0887 16.7578 10.1904 16.7999 10.2965 16.7999Z" fill="#222222"></path>
</svg>