<svg width="32" height="32" viewBox="0 0 32 32" fill="none" xmlns="http://www.w3.org/2000/svg">
    <path d="M16 32C24.8366 32 32 24.8366 32 16C32 7.16344 24.8366 0 16 0C7.16344 0 0 7.16344 0 16C0 24.8366 7.16344 32 16 32Z" fill="white"></path>
    <path d="M17.0123 14.7596V14.7236L16.9883 14.7596H17.0123Z" fill="#222222"></path><path d="M11.3962 24.0561H7.79621V13.2001H11.3962V24.0561ZM9.60021 11.7001H9.57621C9.31915 11.7177 9.06122 11.6821 8.81857 11.5954C8.57591 11.5088 8.35376 11.3729 8.16602 11.1965C7.97828 11.02 7.82899 10.8067 7.7275 10.5698C7.62601 10.333 7.57451 10.0778 7.57621 9.82009C7.57621 8.75209 8.37621 7.94009 9.62021 7.94009C9.87894 7.92022 10.139 7.95412 10.384 8.03965C10.6289 8.12519 10.8536 8.26052 11.0437 8.43711C11.2338 8.61371 11.3853 8.82775 11.4887 9.06576C11.592 9.30378 11.645 9.56061 11.6442 9.82009C11.6362 10.8641 10.8522 11.7001 9.60021 11.7001ZM24.4322 24.0561H20.8002V18.2401C20.8002 16.7801 20.2802 15.7801 18.9722 15.7801C18.564 15.782 18.1664 15.9103 17.834 16.1474C17.5017 16.3845 17.2509 16.7187 17.1162 17.1041C17.0231 17.3877 16.9824 17.6859 16.9962 17.9841V24.0601H13.3962C13.3962 24.0601 13.4442 14.2041 13.3962 13.1841H16.9962V14.7241C17.3244 14.1561 17.8016 13.6886 18.3761 13.3721C18.9506 13.0556 19.6008 12.902 20.2562 12.9281C22.6322 12.9281 24.4162 14.4841 24.4162 17.8241L24.4322 24.0561Z" fill="#222222"></path>
</svg>