<svg width="32" height="32" viewBox="0 0 32 32" fill="none" xmlns="http://www.w3.org/2000/svg">
    <path d="M16 32C24.8366 32 32 24.8366 32 16C32 7.16344 24.8366 0 16 0C7.16344 0 0 7.16344 0 16C0 24.8366 7.16344 32 16 32Z" fill="white"></path>
    <path d="M23.917 10.7759C23.6572 10.8922 23.3899 10.9911 23.117 11.0719C23.4414 10.7016 23.6865 10.2687 23.837 9.79988C23.8553 9.74704 23.8566 9.68979 23.8407 9.63616C23.8249 9.58253 23.7927 9.53519 23.7486 9.5008C23.7045 9.4664 23.6507 9.44666 23.5948 9.44435C23.539 9.44203 23.4838 9.45725 23.437 9.48788C22.867 9.82828 22.2476 10.0779 21.601 10.2279C21.0705 9.71367 20.3936 9.37678 19.6635 9.26372C18.9335 9.15065 18.1863 9.26699 17.5252 9.59667C16.8641 9.92635 16.3216 10.4531 15.9726 11.1043C15.6236 11.7554 15.4854 12.4988 15.577 13.2319C14.3655 13.1234 13.188 12.7738 12.1137 12.2037C11.0393 11.6335 10.0898 10.8543 9.32096 9.91188C9.29299 9.87906 9.25762 9.85336 9.21777 9.83689C9.17792 9.82043 9.13472 9.81368 9.09174 9.81719C9.04876 9.82071 9.00724 9.8344 8.97059 9.85712C8.93394 9.87984 8.90322 9.91095 8.88096 9.94788C8.56783 10.4919 8.40236 11.1082 8.40096 11.7359C8.39878 12.5818 8.69961 13.4006 9.24896 14.0439C9.0844 13.9873 8.92512 13.9163 8.77296 13.8319C8.73235 13.8102 8.68701 13.7988 8.64096 13.7988C8.59491 13.7988 8.54957 13.8102 8.50896 13.8319C8.46844 13.8548 8.43459 13.8879 8.41075 13.9279C8.3869 13.9678 8.37388 14.0133 8.37296 14.0599V14.1079C8.37409 14.7252 8.53538 15.3317 8.84107 15.8681C9.14676 16.4044 9.58638 16.8523 10.117 17.1679C10.0255 17.1604 9.93467 17.1471 9.84496 17.1279C9.79894 17.12 9.75169 17.124 9.70761 17.1394C9.66354 17.1548 9.62409 17.1811 9.59296 17.2159C9.56317 17.2506 9.54276 17.2923 9.53366 17.3371C9.52456 17.3819 9.52707 17.4283 9.54096 17.4719C9.72712 18.0654 10.0661 18.5996 10.5238 19.0209C10.9816 19.4421 11.542 19.7356 12.149 19.8719C11.1397 20.504 9.97183 20.8368 8.78096 20.8319C8.52009 20.8284 8.25965 20.8097 8.00096 20.7759C7.94069 20.7687 7.87975 20.7822 7.82814 20.8141C7.77652 20.846 7.73728 20.8946 7.71683 20.9517C7.69639 21.0089 7.69595 21.0713 7.71559 21.1287C7.73524 21.1862 7.7738 21.2352 7.82496 21.2679C9.37642 22.2633 11.1816 22.791 13.025 22.7879C14.3751 22.8191 15.7157 22.5538 16.9521 22.0106C18.1885 21.4673 19.2907 20.6594 20.181 19.6439C21.7606 17.848 22.6409 15.5435 22.661 13.1519C22.661 13.0559 22.661 12.9559 22.661 12.8599C23.2844 12.3901 23.8252 11.8196 24.261 11.1719C24.2928 11.1232 24.3081 11.0656 24.3048 11.0076C24.3015 10.9496 24.2797 10.8941 24.2426 10.8494C24.2054 10.8046 24.1549 10.773 24.0985 10.759C24.0421 10.7451 23.9826 10.7496 23.929 10.7719L23.917 10.7759Z" fill="#222222"></path>
</svg>