<svg width="32" height="32" viewBox="0 0 32 32" fill="none" xmlns="http://www.w3.org/2000/svg">
    <path d="M16 32C24.8366 32 32 24.8366 32 16C32 7.16344 24.8366 0 16 0C7.16344 0 0 7.16344 0 16C0 24.8366 7.16344 32 16 32Z" fill="white"></path><path d="M24.0555 19.9478C23.964 20.3766 23.741 20.7662 23.4176 21.0623C23.0943 21.3584 22.6867 21.5463 22.2515 21.5998C20.1732 21.7893 18.086 21.8627 15.9995 21.8198C13.9131 21.8628 11.8258 21.7893 9.74752 21.5998C9.31377 21.5476 8.90704 21.3617 8.58377 21.0678C8.2605 20.7739 8.03674 20.3867 7.94352 19.9598C7.69907 18.6548 7.60113 17.3266 7.65152 15.9998C7.60334 14.6769 7.70262 13.3528 7.94752 12.0518C8.04104 11.6259 8.26439 11.2394 8.58677 10.9457C8.90915 10.6519 9.3147 10.4654 9.74752 10.4118C11.8256 10.2186 13.9128 10.1411 15.9995 10.1798C18.0873 10.1369 20.1759 10.2104 22.2555 10.3998C22.6889 10.4532 23.095 10.6396 23.4181 10.9333C23.7411 11.2269 23.9652 11.6135 24.0595 12.0398C24.3026 13.345 24.3992 14.6732 24.3475 15.9998C24.397 17.3226 24.2991 18.6468 24.0555 19.9478Z" fill="#222222"></path><path d="M13.8438 18.5923L19.1517 15.8403C17.3717 14.9123 15.5997 14.0003 13.8438 13.0723V18.5923Z" fill="white"></path>
</svg>